<svg xmlns="http://www.w3.org/2000/svg" width="64" height="64" viewBox="0 0 64 64">
  <defs>
    <linearGradient id="g" x1="0" y1="0" x2="1" y2="1">
      <stop offset="0" stop-color="#22d3ee"/>
      <stop offset="1" stop-color="#a855f7"/>
    </linearGradient>
  </defs>
  <rect x="6" y="6" width="52" height="52" rx="14" fill="#0b0f14"/>
  <rect x="10" y="10" width="44" height="44" rx="12" fill="url(#g)" opacity="0.22"/>
  <path d="M22 34c0-6.2 4.9-11 11-11h7v4h-7c-3.9 0-7 3.1-7 7s3.1 7 7 7h7v4h-7c-6.1 0-11-4.8-11-11Z" fill="url(#g)"/>
  <path d="M42 41.5c0 1.9-1.6 3.5-3.5 3.5S35 43.4 35 41.5 36.6 38 38.5 38 42 39.6 42 41.5Z" fill="#22d3ee"/>
</svg>

